<?xml version="1.0" standalone="no"?>
<!DOCTYPE svg PUBLIC "-//W3C//DTD SVG 20010904//EN"
 "http://www.w3.org/TR/2001/REC-SVG-20010904/DTD/svg10.dtd">
<svg version="1.0" xmlns="http://www.w3.org/2000/svg"
 width="371.000000pt" height="400.000000pt" viewBox="0 0 371.000000 400.000000"
 preserveAspectRatio="xMidYMid meet">

<g transform="translate(0.000000,400.000000) scale(0.100000,-0.100000)"
fill="#000000" stroke="none">
<path d="M1690 3820 c-277 -23 -595 -101 -739 -182 l-53 -29 -27 24 c-59 55
-121 63 -170 21 -28 -23 -31 -31 -31 -84 0 -55 -1 -59 -29 -68 -61 -22 -80
-120 -36 -186 l25 -36 -50 -88 c-64 -111 -105 -217 -141 -362 -56 -229 -62
-423 -23 -687 5 -36 4 -43 -10 -43 -27 0 -109 -46 -140 -78 -37 -40 -44 -99
-19 -166 21 -57 44 -76 71 -60 13 9 17 25 17 67 0 41 5 61 20 77 22 25 95 61
107 54 5 -3 -7 -24 -27 -46 -44 -52 -75 -134 -82 -219 -12 -136 51 -330 137
-422 l41 -45 -27 -79 c-31 -88 -28 -123 11 -149 22 -14 31 -15 72 -3 40 11 47
11 51 -2 3 -8 22 -31 42 -52 28 -27 47 -37 71 -38 52 -2 82 2 103 13 16 9 23
7 35 -13 45 -68 142 -178 200 -226 59 -48 70 -54 107 -52 38 3 47 -2 110 -60
130 -118 494 -272 786 -331 230 -47 474 -52 580 -11 123 47 235 162 315 321
21 41 52 95 69 120 134 192 175 442 104 636 -16 42 -22 78 -20 127 1 66 3 70
41 104 24 22 55 68 79 117 38 77 47 114 80 316 6 36 14 87 19 114 6 37 15 55
39 75 35 29 43 69 17 94 -16 16 -167 46 -254 50 l-55 2 -23 115 c-12 63 -34
153 -48 199 -25 78 -25 84 -9 102 13 15 16 31 11 86 -2 38 -8 75 -11 84 -5 10
2 20 20 29 34 19 54 59 54 110 0 33 7 50 35 83 46 53 78 140 72 191 -7 47 -42
85 -88 95 -33 7 -33 7 -31 56 4 89 -50 140 -135 128 -31 -5 -32 -4 -27 28 3
22 0 41 -9 54 -13 17 -36 20 -216 31 -153 9 -206 15 -219 27 -52 46 -549 88
-792 67z m541 -921 c111 -66 166 -96 187 -101 32 -9 52 16 53 68 1 24 3 49 4
54 1 6 3 24 4 40 l1 30 39 -24 c83 -53 158 -77 274 -87 61 -5 111 -10 112 -12
1 -2 67 -410 81 -504 6 -41 6 -43 -20 -43 -14 0 -50 13 -79 29 -28 16 -94 42
-146 56 -78 23 -97 25 -116 15 -34 -18 -45 -51 -29 -82 15 -28 26 -33 89 -43
78 -11 79 -14 5 -51 -65 -33 -130 -93 -130 -120 0 -19 -25 -24 -117 -20 -62 3
-89 8 -92 17 -15 47 -117 106 -232 134 l-66 17 23 23 c31 31 30 40 -5 76 -21
21 -39 29 -63 29 -56 0 -172 -35 -235 -70 -52 -30 -69 -34 -176 -41 -215 -15
-355 -48 -412 -97 -18 -16 -31 -17 -112 -9 l-91 9 41 76 c22 43 48 89 57 105
l17 27 11 -24 c6 -14 20 -30 31 -35 24 -13 33 -5 131 124 89 118 147 210 203
319 l45 88 16 -30 c17 -33 34 -42 75 -42 34 0 70 37 106 110 15 30 29 57 31
59 2 2 22 -17 45 -43 39 -45 146 -126 181 -139 31 -11 47 17 68 117 11 54 20
100 20 102 0 3 26 -13 59 -35 32 -22 83 -54 112 -72z m939 -699 c33 -17 90
-139 90 -190 0 -75 -35 -221 -71 -295 l-34 -69 -2 110 c-3 131 -22 420 -30
440 -6 17 19 19 47 4z m-151 -350 c0 -129 -2 -246 -6 -258 -6 -23 -9 -24 -88
-20 -75 3 -87 6 -122 34 -76 61 -122 160 -138 296 -7 54 -6 56 16 60 20 2 27
-5 44 -47 15 -36 27 -52 48 -59 61 -22 105 37 106 141 1 42 -4 57 -25 83 -16
18 -33 29 -41 26 -9 -4 -13 -1 -11 6 7 21 106 69 156 77 l47 6 6 -55 c4 -30 7
-161 8 -290z m-909 247 c30 -15 76 -47 103 -71 40 -38 47 -50 47 -83 0 -84
-45 -228 -95 -308 -181 -287 -601 -178 -701 182 -16 60 -16 62 4 88 11 14 26
43 33 63 18 56 45 88 92 111 86 42 144 51 307 48 146 -2 158 -4 210 -30z
m-907 -43 c16 -13 35 -24 44 -24 36 0 86 -34 100 -69 24 -62 35 -79 53 -84 13
-3 18 -20 23 -75 17 -202 183 -362 412 -396 51 -8 133 6 210 35 72 27 169 118
203 191 12 27 22 50 22 53 1 3 8 24 16 47 8 24 22 78 30 122 13 68 20 83 52
113 57 54 87 66 153 61 82 -6 91 -17 84 -97 -4 -41 -1 -93 8 -138 8 -40 13
-73 12 -73 -1 0 -20 9 -43 20 -49 24 -65 25 -82 5 -11 -13 -5 -24 38 -67 74
-74 82 -146 21 -182 -41 -24 -83 -15 -157 34 -67 45 -78 47 -104 23 -27 -25
-23 -68 10 -92 l27 -20 -28 -1 c-55 0 -194 -43 -282 -85 -110 -54 -214 -131
-267 -199 -21 -28 -45 -58 -52 -67 -7 -9 -21 -38 -31 -65 -10 -27 -23 -54 -29
-61 -8 -9 -50 14 -168 93 -277 184 -406 332 -483 552 -33 93 -48 67 -70 -122
-17 -145 -17 -323 0 -371 5 -13 -4 -8 -24 15 -83 91 -103 119 -96 139 10 32
-35 71 -82 71 -52 1 -115 31 -146 71 -59 79 -103 229 -94 324 13 136 82 215
189 215 38 0 51 -6 80 -34 19 -19 44 -51 55 -73 11 -23 33 -45 54 -55 29 -15
41 -15 88 -4 55 12 81 35 81 70 0 12 -11 66 -24 121 -13 55 -22 104 -19 108 3
5 46 6 96 2 76 -6 96 -11 120 -31z m1633 -557 c27 -9 75 -17 107 -17 61 0 70
-10 45 -49 -10 -16 -6 -36 20 -113 36 -107 45 -171 34 -246 l-7 -53 -38 79
c-44 92 -116 177 -196 231 -56 38 -141 81 -160 81 -21 0 -20 20 2 47 27 32 47
84 47 120 0 24 2 23 48 -19 27 -23 71 -51 98 -61z m-300 -271 c196 -10 293
-82 354 -265 l21 -63 -23 -46 c-25 -50 -78 -85 -149 -96 -32 -6 -41 -1 -107
54 -39 33 -83 65 -97 70 -74 28 -139 -5 -212 -107 l-45 -64 -92 2 c-121 2
-226 33 -329 97 -35 22 -37 26 -37 75 1 44 7 61 43 113 113 165 305 251 532
237 28 -1 91 -5 141 -7z"/>
<path d="M1853 2090 c-21 -19 -27 -36 -38 -122 -8 -59 9 -124 36 -139 61 -32
110 38 117 167 4 76 3 82 -19 98 -31 22 -71 20 -96 -4z"/>
<path d="M596 1799 c-14 -11 -26 -29 -26 -40 0 -22 3 -23 31 -6 22 13 22 14
112 -103 48 -61 84 -75 118 -44 45 40 1 121 -100 186 -53 33 -98 36 -135 7z"/>
<path d="M2586 1139 c-33 -28 -71 -55 -84 -60 -65 -25 -154 3 -210 65 -37 41
-68 46 -100 16 -48 -45 -11 -116 93 -176 44 -26 59 -29 135 -29 90 0 145 19
198 68 53 49 81 148 46 161 -20 8 -9 13 -78 -45z"/>
</g>
</svg>
